<svg width="406" height="237" viewBox="0 0 406 237" fill="none" xmlns="http://www.w3.org/2000/svg">
<line x1="2.54419" y1="236.5" x2="387.975" y2="236.5" stroke="#D0D3D9" stroke-linecap="round" stroke-linejoin="round" stroke-dasharray="3.5 3.5"/>
<line x1="2.29309" y1="188.854" x2="393.372" y2="188.854" stroke="#D0D3D9" stroke-linecap="round" stroke-linejoin="round"/>
<line x1="2.29309" y1="141.209" x2="393.372" y2="141.209" stroke="#D0D3D9" stroke-linecap="round" stroke-linejoin="round"/>
<line x1="2.29309" y1="93.3541" x2="381.772" y2="93.3542" stroke="#D0D3D9" stroke-linecap="round" stroke-linejoin="round"/>
<line x1="2.29309" y1="46.3356" x2="381.772" y2="46.3356" stroke="#D0D3D9" stroke-linecap="round" stroke-linejoin="round"/>
<path d="M0.597778 86.1216C11.7014 89.2637 34.9895 122.378 55.3406 134.896C80.7795 150.542 83.1023 97.5378 104.321 74.7308C125.54 51.9237 142.607 64.6508 164.229 68.3165C185.852 71.9823 192.281 63.6034 215.657 85.5979C249.772 117.697 255.936 106.572 268.128 90.5715C275.005 81.378 293.643 52.6663 304.71 74.7308C318.543 102.311 326.558 139.738 340.348 133.34C354.063 126.975 353.033 90.5715 353.033 90.5715C353.033 90.5715 357.513 56.7911 377.207 49.6307" stroke="#B6D3FA" stroke-width="2"/>
</svg>
