<svg width="415" height="237" viewBox="0 0 415 237" fill="none" xmlns="http://www.w3.org/2000/svg">
<line x1="2.58954" y1="236.5" x2="396.6" y2="236.5" stroke="#D0D3D9" stroke-linecap="round" stroke-linejoin="round" stroke-dasharray="3.5 3.5"/>
<line x1="2.33292" y1="188.854" x2="402.117" y2="188.854" stroke="#D0D3D9" stroke-linecap="round" stroke-linejoin="round"/>
<line x1="2.33292" y1="141.208" x2="402.117" y2="141.209" stroke="#D0D3D9" stroke-linecap="round" stroke-linejoin="round"/>
<line x1="2.33292" y1="93.354" x2="390.259" y2="93.3541" stroke="#D0D3D9" stroke-linecap="round" stroke-linejoin="round"/>
<line x1="2.33292" y1="46.3354" x2="390.259" y2="46.3355" stroke="#D0D3D9" stroke-linecap="round" stroke-linejoin="round"/>
<path d="M0.611053 86.1217C11.9612 89.2638 35.7664 122.378 56.5694 134.896C82.5731 150.542 84.9475 97.5379 106.637 74.7309C128.327 51.9238 145.773 64.6509 167.876 68.3166C189.979 71.9824 196.55 63.6035 220.445 85.598C255.318 117.697 261.619 106.572 274.081 90.5716C281.111 81.3781 300.163 52.6664 311.475 74.7309C325.616 102.311 333.809 139.738 347.904 133.34C361.925 126.975 360.872 90.5716 360.872 90.5716C360.872 90.5716 365.451 56.7912 385.582 49.6309" stroke="#B6D3FA" stroke-width="2"/>
</svg>
