<svg width="24" height="23" viewBox="0 0 24 23" fill="none" xmlns="http://www.w3.org/2000/svg">
<path d="M15.5188 17.0436C13.8869 18.0736 11.9937 18.6191 10.0612 18.616C5.05833 18.616 0.896046 15.0336 0.0229492 10.3062C0.421947 8.15558 1.509 6.19094 3.12193 4.70544L0.218723 1.81918L1.53162 0.512695L19.9019 18.7942L18.589 20.0997L15.5188 17.0436ZM4.43389 6.01284C3.17297 7.15367 2.29459 8.65238 1.9176 10.3062C2.20735 11.5679 2.78908 12.7448 3.61647 13.7433C4.44386 14.7418 5.49407 15.5344 6.68349 16.0578C7.87291 16.5812 9.1687 16.8211 10.4677 16.7584C11.7667 16.6957 13.0331 16.3321 14.166 15.6965L12.2843 13.824C11.4833 14.3261 10.5346 14.5425 9.59383 14.4375C8.65303 14.3326 7.77601 13.9126 7.1066 13.2464C6.43719 12.5803 6.01514 11.7075 5.90968 10.7713C5.80422 9.83515 6.0216 8.89108 6.52617 8.09398L4.43389 6.01284ZM10.9093 12.4557L7.90123 9.46232C7.73613 9.88052 7.69728 10.3376 7.78943 10.7774C7.88158 11.2173 8.10073 11.6208 8.42 11.9385C8.73927 12.2562 9.14478 12.4743 9.58679 12.566C10.0288 12.6577 10.4881 12.619 10.9084 12.4548L10.9093 12.4557ZM18.2327 14.5461L16.905 13.2257C17.5252 12.3461 17.9668 11.3543 18.2049 10.3062C17.9527 9.20723 17.4786 8.17075 16.8114 7.25976C16.1442 6.34878 15.2978 5.58233 14.3236 5.00699C13.3495 4.43166 12.2679 4.05946 11.1447 3.91302C10.0215 3.76658 8.8801 3.84896 7.78989 4.15514L6.32576 2.69816C7.48277 2.24574 8.74371 1.99645 10.0612 1.99645C15.0641 1.99645 19.2264 5.57889 20.0995 10.3062C19.8152 11.8442 19.1762 13.2955 18.2327 14.5461ZM9.80423 6.15872C10.3948 6.1224 10.9864 6.21141 11.5398 6.41985C12.0932 6.62829 12.5957 6.95139 13.0141 7.36775C13.4325 7.7841 13.7572 8.2842 13.9667 8.83489C14.1761 9.38558 14.2656 9.97428 14.2291 10.562L9.80423 6.15872Z" fill="black"/>
</svg>
