<svg width="24" height="23" viewBox="0 0 24 23" fill="none" xmlns="http://www.w3.org/2000/svg">
<path d="M15.5188 16.8537C13.8869 17.8837 11.9937 18.4291 10.0612 18.4261C5.05833 18.4261 0.896046 14.8436 0.0229492 10.1163C0.421947 7.96564 1.509 6.001 3.12193 4.51549L0.218723 1.62923L1.53162 0.322754L19.9019 18.6042L18.589 19.9098L15.5188 16.8537ZM4.43389 5.8229C3.17297 6.96373 2.29459 8.46244 1.9176 10.1163C2.20735 11.3779 2.78908 12.5549 3.61647 13.5534C4.44386 14.5519 5.49407 15.3444 6.68349 15.8678C7.87291 16.3913 9.1687 16.6312 10.4677 16.5685C11.7667 16.5057 13.0331 16.1421 14.166 15.5066L12.2843 13.6341C11.4833 14.1362 10.5346 14.3525 9.59383 14.2476C8.65303 14.1426 7.77601 13.7226 7.1066 13.0565C6.43719 12.3904 6.01514 11.5176 5.90968 10.5814C5.80422 9.64521 6.0216 8.70114 6.52617 7.90404L4.43389 5.8229ZM10.9093 12.2657L7.90123 9.27238C7.73613 9.69058 7.69728 10.1476 7.78943 10.5875C7.88158 11.0273 8.10073 11.4309 8.42 11.7486C8.73927 12.0663 9.14478 12.2844 9.58679 12.3761C10.0288 12.4678 10.4881 12.4291 10.9084 12.2648L10.9093 12.2657ZM18.2327 14.3561L16.905 13.0358C17.5252 12.1561 17.9668 11.1644 18.2049 10.1163C17.9527 9.01729 17.4786 7.9808 16.8114 7.06982C16.1442 6.15884 15.2978 5.39239 14.3236 4.81705C13.3495 4.24172 12.2679 3.86952 11.1447 3.72308C10.0215 3.57664 8.8801 3.65902 7.78989 3.9652L6.32576 2.50822C7.48277 2.0558 8.74371 1.80651 10.0612 1.80651C15.0641 1.80651 19.2264 5.38894 20.0995 10.1163C19.8152 11.6542 19.1762 13.1056 18.2327 14.3561ZM9.80423 5.96878C10.3948 5.93246 10.9864 6.02147 11.5398 6.22991C12.0932 6.43835 12.5957 6.76145 13.0141 7.17781C13.4325 7.59416 13.7572 8.09426 13.9667 8.64495C14.1761 9.19564 14.2656 9.78434 14.2291 10.372L9.80423 5.96878Z" fill="black"/>
</svg>
