<svg width="24" height="23" viewBox="0 0 24 23" fill="none" xmlns="http://www.w3.org/2000/svg">
<path d="M15.5188 16.9851C13.8869 18.0151 11.9937 18.5606 10.0612 18.5575C5.05833 18.5575 0.896046 14.9751 0.0229492 10.2478C0.421947 8.09711 1.509 6.13247 3.12193 4.64696L0.218723 1.7607L1.53162 0.454224L19.9019 18.7357L18.589 20.0413L15.5188 16.9851ZM4.43389 5.95437C3.17297 7.0952 2.29459 8.59391 1.9176 10.2478C2.20735 11.5094 2.78908 12.6863 3.61647 13.6848C4.44386 14.6834 5.49407 15.4759 6.68349 15.9993C7.87291 16.5228 9.1687 16.7627 10.4677 16.6999C11.7667 16.6372 13.0331 16.2736 14.166 15.638L12.2843 13.7656C11.4833 14.2677 10.5346 14.484 9.59383 14.379C8.65303 14.2741 7.77601 13.8541 7.1066 13.188C6.43719 12.5218 6.01514 11.6491 5.90968 10.7129C5.80422 9.77668 6.0216 8.83261 6.52617 8.0355L4.43389 5.95437ZM10.9093 12.3972L7.90123 9.40385C7.73613 9.82205 7.69728 10.2791 7.78943 10.719C7.88158 11.1588 8.10073 11.5623 8.42 11.88C8.73927 12.1978 9.14478 12.4158 9.58679 12.5075C10.0288 12.5992 10.4881 12.5606 10.9084 12.3963L10.9093 12.3972ZM18.2327 14.4876L16.905 13.1672C17.5252 12.2876 17.9668 11.2959 18.2049 10.2478C17.9527 9.14876 17.4786 8.11227 16.8114 7.20129C16.1442 6.29031 15.2978 5.52385 14.3236 4.94852C13.3495 4.37319 12.2679 4.00099 11.1447 3.85455C10.0215 3.70811 8.8801 3.79049 7.78989 4.09667L6.32576 2.63969C7.48277 2.18727 8.74371 1.93798 10.0612 1.93798C15.0641 1.93798 19.2264 5.52041 20.0995 10.2478C19.8152 11.7857 19.1762 13.237 18.2327 14.4876ZM9.80423 6.10025C10.3948 6.06393 10.9864 6.15294 11.5398 6.36138C12.0932 6.56982 12.5957 6.89292 13.0141 7.30928C13.4325 7.72563 13.7572 8.22573 13.9667 8.77642C14.1761 9.32711 14.2656 9.91581 14.2291 10.5035L9.80423 6.10025Z" fill="black"/>
</svg>
