<svg width="270" height="57" viewBox="0 0 270 57" fill="none" xmlns="http://www.w3.org/2000/svg">
<ellipse cx="28.8259" cy="28.8254" rx="24.5642" ry="24.5917" fill="url(#paint0_linear_550_13481)"/>
<path d="M37.9738 36.3461L39.0649 29.4052H32.2389V24.903C32.2389 23.0036 33.1907 21.1511 36.248 21.1511H39.3534V15.2419C39.3534 15.2419 36.5364 14.7729 33.8445 14.7729C28.2202 14.7729 24.5476 18.098 24.5476 24.1151V29.4052H18.2983V36.3461H24.5476V53.1264C25.8022 53.3187 27.0857 53.4171 28.3933 53.4171C29.7008 53.4171 30.9843 53.3187 32.2389 53.1264V36.3461H37.9738Z" fill="white"/>
<path d="M123.879 43.5062C118.564 43.5062 113.61 41.9604 109.44 39.2933C112.981 39.5224 119.229 38.9737 123.115 35.2669C117.269 34.9987 114.632 30.515 114.288 28.5988C114.785 28.7905 117.154 29.0204 118.491 28.4839C111.767 26.7977 110.735 20.8961 110.964 19.0949C112.225 19.9763 114.365 20.2829 115.205 20.2063C108.939 15.7226 111.193 8.97785 112.301 7.5216C116.798 13.7518 123.538 17.251 131.876 17.4456C131.719 16.7561 131.636 16.0383 131.636 15.301C131.636 10.0098 135.912 5.72046 141.188 5.72046C143.945 5.72046 146.428 6.89141 148.172 8.76441C150.014 8.33278 152.786 7.32236 154.141 6.44858C153.458 8.90121 151.332 10.9472 150.045 11.7055C150.035 11.6796 150.056 11.7313 150.045 11.7055C151.175 11.5346 154.233 10.947 155.44 10.1275C154.843 11.5054 152.588 13.7963 150.738 15.0789C151.082 30.2616 139.466 43.5062 123.879 43.5062Z" fill="#47ACDF"/>
<rect x="217.771" y="4.16479" width="48.1651" height="48.2191" rx="6" fill="url(#paint1_radial_550_13481)"/>
<rect x="217.771" y="4.16479" width="48.1651" height="48.2191" rx="6" fill="url(#paint2_radial_550_13481)"/>
<rect x="217.771" y="4.16479" width="48.1651" height="48.2191" rx="6" fill="url(#paint3_radial_550_13481)"/>
<path d="M253.894 18.8027C253.894 20.2294 252.739 21.3859 251.314 21.3859C249.889 21.3859 248.734 20.2294 248.734 18.8027C248.734 17.3761 249.889 16.2196 251.314 16.2196C252.739 16.2196 253.894 17.3761 253.894 18.8027Z" fill="white"/>
<path fill-rule="evenodd" clip-rule="evenodd" d="M241.853 36.8849C246.603 36.8849 250.454 33.0298 250.454 28.2743C250.454 23.5188 246.603 19.6638 241.853 19.6638C237.103 19.6638 233.252 23.5188 233.252 28.2743C233.252 33.0298 237.103 36.8849 241.853 36.8849ZM241.853 33.4407C244.703 33.4407 247.014 31.1276 247.014 28.2743C247.014 25.421 244.703 23.108 241.853 23.108C239.003 23.108 236.693 25.421 236.693 28.2743C236.693 31.1276 239.003 33.4407 241.853 33.4407Z" fill="white"/>
<path fill-rule="evenodd" clip-rule="evenodd" d="M224.651 27.5855C224.651 21.7986 224.651 18.9052 225.776 16.695C226.766 14.7507 228.345 13.17 230.287 12.1794C232.495 11.0532 235.385 11.0532 241.165 11.0532H242.541C248.322 11.0532 251.212 11.0532 253.42 12.1794C255.362 13.17 256.941 14.7507 257.93 16.695C259.055 18.9052 259.055 21.7986 259.055 27.5855V28.9632C259.055 34.75 259.055 37.6434 257.93 39.8537C256.941 41.7979 255.362 43.3786 253.42 44.3692C251.212 45.4954 248.322 45.4954 242.541 45.4954H241.165C235.385 45.4954 232.495 45.4954 230.287 44.3692C228.345 43.3786 226.766 41.7979 225.776 39.8537C224.651 37.6434 224.651 34.75 224.651 28.9632V27.5855ZM241.165 14.4974H242.541C245.488 14.4974 247.492 14.5001 249.04 14.6268C250.548 14.7502 251.32 14.9738 251.858 15.2482C253.152 15.9087 254.205 16.9625 254.865 18.2586C255.139 18.7973 255.362 19.5695 255.485 21.0795C255.612 22.6297 255.615 24.6352 255.615 27.5855V28.9632C255.615 31.9134 255.612 33.919 255.485 35.4692C255.362 36.9792 255.139 37.7514 254.865 38.2901C254.205 39.5862 253.152 40.64 251.858 41.3004C251.32 41.5749 250.548 41.7985 249.04 41.9219C247.492 42.0485 245.488 42.0512 242.541 42.0512H241.165C238.218 42.0512 236.215 42.0485 234.666 41.9219C233.158 41.7985 232.387 41.5749 231.849 41.3004C230.554 40.64 229.501 39.5862 228.842 38.2901C228.568 37.7514 228.344 36.9792 228.221 35.4692C228.094 33.919 228.092 31.9134 228.092 28.9632V27.5855C228.092 24.6352 228.094 22.6297 228.221 21.0795C228.344 19.5695 228.568 18.7973 228.842 18.2586C229.501 16.9625 230.554 15.9087 231.849 15.2482C232.387 14.9738 233.158 14.7502 234.666 14.6268C236.215 14.5001 238.218 14.4974 241.165 14.4974Z" fill="white"/>
<defs>
<linearGradient id="paint0_linear_550_13481" x1="28.8259" y1="4.23364" x2="28.8259" y2="53.2712" gradientUnits="userSpaceOnUse">
<stop stop-color="#18ACFE"/>
<stop offset="1" stop-color="#0163E0"/>
</linearGradient>
<radialGradient id="paint1_radial_550_13481" cx="0" cy="0" r="1" gradientUnits="userSpaceOnUse" gradientTransform="translate(234.972 40.3291) rotate(-55.4058) scale(43.9317 43.9143)">
<stop stop-color="#B13589"/>
<stop offset="0.79309" stop-color="#C62F94"/>
<stop offset="1" stop-color="#8A3AC8"/>
</radialGradient>
<radialGradient id="paint2_radial_550_13481" cx="0" cy="0" r="1" gradientUnits="userSpaceOnUse" gradientTransform="translate(233.252 54.106) rotate(-65.1608) scale(38.9021 38.8739)">
<stop stop-color="#E0E8B7"/>
<stop offset="0.444662" stop-color="#FB8A2E"/>
<stop offset="0.71474" stop-color="#E2425C"/>
<stop offset="1" stop-color="#E2425C" stop-opacity="0"/>
</radialGradient>
<radialGradient id="paint3_radial_550_13481" cx="0" cy="0" r="1" gradientUnits="userSpaceOnUse" gradientTransform="translate(215.19 5.8869) rotate(-8.13909) scale(66.9009 14.3248)">
<stop offset="0.156701" stop-color="#406ADC"/>
<stop offset="0.467799" stop-color="#6A45BE"/>
<stop offset="1" stop-color="#6A45BE" stop-opacity="0"/>
</radialGradient>
</defs>
</svg>
