<svg width="397" height="217" viewBox="0 0 397 217" fill="none" xmlns="http://www.w3.org/2000/svg">
<path d="M396 119L382.867 111.069L369.733 119L356.6 111.069L343.467 100.419H330.333L317.2 111.069L304.067 100.419L290.933 111.069L277.8 94.3005H264.667H251.533L238.4 100.419L225.267 88.8621L212.133 94.3005H199H185.867L172.733 88.8621L159.6 94.3005H146.467L133.333 104.951H120.2H107.067L93.9333 94.3005H80.8L67.6666 88.8621L54.5333 82.7438L41.4 73L28.2667 82.7438L15.1333 73H1.99999" stroke="#009DFF" stroke-width="2" stroke-linecap="round"/>
<circle cx="4" cy="74" r="4" fill="#009DFF"/>
<circle cx="31" cy="81" r="4" fill="#009DFF"/>
<circle cx="53" cy="80" r="4" fill="#009DFF"/>
<circle cx="73" cy="91" r="4" fill="#009DFF"/>
<circle cx="94" cy="97" r="4" fill="#009DFF"/>
<circle cx="120" cy="105" r="4" fill="#009DFF"/>
<circle cx="143" cy="98" r="4" fill="#009DFF"/>
<circle cx="163" cy="93" r="4" fill="#009DFF"/>
<circle cx="185" cy="93" r="4" fill="#009DFF"/>
<circle cx="213" cy="94" r="4" fill="#009DFF"/>
<circle cx="234" cy="94" r="4" fill="#009DFF"/>
<circle cx="253" cy="94" r="4" fill="#009DFF"/>
<circle cx="279" cy="96" r="4" fill="#009DFF"/>
<circle cx="303" cy="103" r="4" fill="#009DFF"/>
<circle cx="323" cy="107" r="4" fill="#009DFF"/>
<circle cx="345" cy="102" r="4" fill="#009DFF"/>
<circle cx="370" cy="118" r="4" fill="#009DFF"/>
<circle cx="393" cy="116" r="4" fill="#009DFF"/>
</svg>
