<svg width="610" height="163" viewBox="0 0 610 163" fill="none" xmlns="http://www.w3.org/2000/svg">
<path d="M83.6195 89.0621C52.2208 80.1372 15.4323 92.7808 0.962891 100.218V162.057H609.745V15.7218C579.359 20.8271 553.547 19.5032 548.664 46.1644C544.681 67.9094 544.504 83.4146 523.342 87.9526C502.067 92.5148 489.701 65.8294 468.358 46.1644C451.284 30.4324 422.529 50.9039 411.918 57.4589C393.108 68.8671 350.347 43.9761 331.815 24.4099C305.354 -3.52844 270.556 -6.08377 244.275 24.4099C217.994 54.9036 191.926 29.903 159.189 46.1644C126.452 62.4259 122.868 100.218 83.6195 89.0621Z" fill="url(#paint0_linear_401_773)"/>
<path d="M1.01227 100.241C15.4694 92.7853 52.2265 80.11 83.5984 89.0573C122.813 100.241 126.394 62.3543 159.103 46.0521C191.812 29.7499 217.858 54.8131 244.117 24.243C270.375 -6.32713 305.144 -3.76539 331.582 24.243C350.098 43.8583 392.823 68.8117 411.617 57.3749C422.219 50.8035 450.95 30.2807 468.009 46.0521C489.333 65.7664 501.689 92.5187 522.946 87.945C544.089 83.3957 544.266 67.8516 548.246 46.0521C553.125 19.324 578.915 20.6513 609.275 15.5331" stroke="#FF5C00" stroke-width="3"/>
<defs>
<linearGradient id="paint0_linear_401_773" x1="305.354" y1="2.48743" x2="305.354" y2="162.057" gradientUnits="userSpaceOnUse">
<stop stop-color="#FF5C00"/>
<stop offset="1" stop-color="#4FD1C5" stop-opacity="0"/>
</linearGradient>
</defs>
</svg>
