<svg width="928" height="230" viewBox="0 0 928 230" fill="none" xmlns="http://www.w3.org/2000/svg">
<path d="M4.07134 226.626L42.5291 214.839C50.4934 212.399 57.7331 208.043 63.6162 202.154L80.343 185.41C95.0828 170.654 119.777 173.573 130.768 191.369V191.369C135.086 198.361 141.894 203.458 149.815 205.628L158.419 207.986C165.344 209.883 172.725 207.53 177.255 201.981L184.363 193.275C193.963 181.516 212.374 182.965 220.091 196.088V196.088C229.081 211.374 251.545 210.205 258.804 194.073L264.768 180.819L283.984 131.716L293.592 107.164L298.396 94.8886V94.8886C300.489 89.5418 307.652 88.5987 311.086 93.2178L331.847 121.138C333.598 123.493 335.725 125.543 338.142 127.206L344.765 131.763C349.338 134.91 353.464 138.663 357.031 142.918L365.696 153.258C369.023 157.229 373.6 159.953 378.672 160.982L380.026 161.257C385.728 162.414 391.643 161.007 396.201 157.41V157.41C399.415 154.873 401.759 151.398 402.909 147.466L420.366 87.7792L429.979 54.9135L436.554 35.3387V35.3387C439.685 23.0603 455.876 20.3084 462.954 30.8515L493.756 76.7327C497.931 82.9511 503.874 87.7774 510.814 90.5855V90.5855C517.695 93.3694 525.243 94.0431 532.495 92.5206L555.438 87.7038C559.995 86.7472 564.474 85.4573 568.84 83.8445L576.607 80.9749C597.955 73.0888 621.722 75.0206 641.573 86.2554V86.2554L669.558 103.374C682.564 111.329 699.061 110.667 711.335 101.696L713.04 100.45C713.872 99.8416 714.762 99.3159 715.697 98.8803V98.8803C721.046 96.3875 727.344 97.0678 732.056 100.647L738.307 105.396C739.795 106.526 741.432 107.443 743.173 108.12V108.12C750.999 111.165 759.879 109.007 765.41 102.716L801.738 61.3954C804.043 58.7737 806.766 56.5512 809.797 54.8174V54.8174C821.068 48.3695 835.15 49.443 845.358 57.5283L852.69 63.3358L860.587 69.1096C862.048 70.1776 863.636 71.0592 865.314 71.7339V71.7339C875.424 75.7977 886.956 71.7446 892.268 62.2609L901.182 46.3466L924.435 3.51865" stroke="url(#paint0_linear_496_12462)" stroke-width="6.26111" stroke-linecap="round"/>
<defs>
<linearGradient id="paint0_linear_496_12462" x1="432.718" y1="-55.2924" x2="338.928" y2="332.02" gradientUnits="userSpaceOnUse">
<stop stop-color="#FF5C00"/>
<stop offset="1" stop-color="#FF5C00" stop-opacity="0"/>
</linearGradient>
</defs>
</svg>
