<svg width="397" height="240" viewBox="0 0 397 240" fill="none" xmlns="http://www.w3.org/2000/svg">
<path d="M396 130L382.867 122.069L369.733 130L356.6 122.069L343.467 111.419H330.333L317.2 122.069L304.067 111.419L290.933 122.069L277.8 105.3H264.667H251.533L238.4 111.419L225.267 99.8621L212.133 105.3H199H185.867L172.733 99.8621L159.6 105.3H146.467L133.333 115.951H120.2H107.067L93.9333 105.3H80.8L67.6666 99.8621L54.5333 93.7438L41.4 84L28.2667 93.7438L15.1333 84H1.99999" stroke="#009DFF" stroke-width="2" stroke-linecap="round"/>
<circle cx="4" cy="85" r="4" fill="#009DFF"/>
<circle cx="31" cy="92" r="4" fill="#009DFF"/>
<circle cx="53" cy="91" r="4" fill="#009DFF"/>
<circle cx="73" cy="102" r="4" fill="#009DFF"/>
<circle cx="94" cy="108" r="4" fill="#009DFF"/>
<circle cx="120" cy="116" r="4" fill="#009DFF"/>
<circle cx="143" cy="109" r="4" fill="#009DFF"/>
<circle cx="163" cy="104" r="4" fill="#009DFF"/>
<circle cx="185" cy="104" r="4" fill="#009DFF"/>
<circle cx="213" cy="105" r="4" fill="#009DFF"/>
<circle cx="234" cy="105" r="4" fill="#009DFF"/>
<circle cx="253" cy="105" r="4" fill="#009DFF"/>
<circle cx="279" cy="107" r="4" fill="#009DFF"/>
<circle cx="303" cy="114" r="4" fill="#009DFF"/>
<circle cx="323" cy="118" r="4" fill="#009DFF"/>
<circle cx="345" cy="113" r="4" fill="#009DFF"/>
<circle cx="370" cy="129" r="4" fill="#009DFF"/>
<circle cx="393" cy="127" r="4" fill="#009DFF"/>
</svg>
