<svg width="928" height="230" viewBox="0 0 928 230" fill="none" xmlns="http://www.w3.org/2000/svg">
<path d="M4.07134 226.309L42.5291 214.523C50.4934 212.082 57.7331 207.727 63.6162 201.838L80.343 185.093C95.0828 170.338 119.777 173.256 130.768 191.053V191.053C135.086 198.044 141.894 203.141 149.815 205.311L158.419 207.669C165.344 209.567 172.725 207.214 177.255 201.664L184.363 192.959C193.963 181.199 212.374 182.649 220.091 195.771V195.771C229.081 211.058 251.545 209.889 258.804 193.756L264.768 180.503L283.984 131.4L293.592 106.848L298.396 94.572V94.572C300.489 89.2252 307.652 88.2821 311.086 92.9012L331.847 120.822C333.598 123.176 335.725 125.227 338.142 126.89L344.765 131.447C349.338 134.594 353.464 138.346 357.031 142.601L365.696 152.942C369.023 156.912 373.6 159.636 378.672 160.665L380.026 160.94C385.728 162.097 391.643 160.69 396.201 157.093V157.093C399.415 154.556 401.759 151.082 402.909 147.149L420.366 87.4626L429.979 54.5969L436.554 35.0221V35.0221C439.685 22.7437 455.876 19.9918 462.954 30.5349L493.756 76.4161C497.931 82.6345 503.874 87.4608 510.814 90.2689V90.2689C517.695 93.0529 525.243 93.7265 532.495 92.204L555.438 87.3872C559.995 86.4306 564.474 85.1407 568.84 83.5279L576.607 80.6584C597.955 72.7722 621.722 74.704 641.573 85.9388V85.9388L669.558 103.057C682.564 111.013 699.061 110.35 711.335 101.379L713.04 100.133C713.872 99.525 714.762 98.9993 715.697 98.5637V98.5637C721.046 96.0709 727.344 96.7512 732.056 100.33L738.307 105.079C739.795 106.21 741.432 107.127 743.173 107.804V107.804C750.999 110.848 759.879 108.69 765.41 102.399L801.738 61.0788C804.043 58.4571 806.766 56.2346 809.797 54.5008V54.5008C821.068 48.0529 835.15 49.1264 845.358 57.2117L852.69 63.0192L860.587 68.793C862.048 69.861 863.636 70.7426 865.314 71.4173V71.4173C875.424 75.4811 886.956 71.428 892.268 61.9443L901.182 46.03L924.435 3.20206" stroke="url(#paint0_linear_405_1301)" stroke-width="6.26111" stroke-linecap="round"/>
<defs>
<linearGradient id="paint0_linear_405_1301" x1="432.718" y1="-55.609" x2="338.928" y2="331.704" gradientUnits="userSpaceOnUse">
<stop stop-color="#FF5C00"/>
<stop offset="1" stop-color="#FF5C00" stop-opacity="0"/>
</linearGradient>
</defs>
</svg>
