<svg width="461" height="148" viewBox="0 0 461 148" fill="none" xmlns="http://www.w3.org/2000/svg">
<path d="M460 84L444.667 76.069L429.333 84L414 76.069L398.667 65.4187H383.333L368 76.069L352.667 65.4187L337.333 76.069L322 59.3005H306.667H291.333L276 65.4187L260.667 53.8621L245.333 59.3005H230H214.667L199.333 53.8621L184 59.3005H168.667L153.333 69.9507H138H122.667L107.333 59.3005H92L76.6667 53.8621L61.3333 47.7438L46 38L30.6667 47.7438L15.3333 38H1.28448e-05" stroke="#009DFF" stroke-width="2" stroke-linecap="round"/>
<circle cx="3" cy="39" r="4" fill="#009DFF"/>
<circle cx="34" cy="46" r="4" fill="#009DFF"/>
<circle cx="59" cy="45" r="4" fill="#009DFF"/>
<circle cx="83" cy="56" r="4" fill="#009DFF"/>
<circle cx="108" cy="62" r="4" fill="#009DFF"/>
<circle cx="139" cy="70" r="4" fill="#009DFF"/>
<circle cx="164" cy="63" r="4" fill="#009DFF"/>
<circle cx="189" cy="58" r="4" fill="#009DFF"/>
<circle cx="213" cy="58" r="4" fill="#009DFF"/>
<circle cx="245" cy="59" r="4" fill="#009DFF"/>
<circle cx="270" cy="59" r="4" fill="#009DFF"/>
<circle cx="294" cy="59" r="4" fill="#009DFF"/>
<circle cx="325" cy="61" r="4" fill="#009DFF"/>
<circle cx="350" cy="68" r="4" fill="#009DFF"/>
<circle cx="375" cy="72" r="4" fill="#009DFF"/>
<circle cx="399" cy="67" r="4" fill="#009DFF"/>
<circle cx="431" cy="83" r="4" fill="#009DFF"/>
<circle cx="456" cy="81" r="4" fill="#009DFF"/>
<path d="M0 133L15.3333 127.828L30.6667 133L46 127.828L61.3333 120.882H76.6667L92 127.828L107.333 120.882L122.667 127.828L138 116.892H153.333H168.667L184 120.882L199.333 113.345L214.667 116.892H230H245.333L260.667 113.345L276 116.892H291.333L306.667 123.837H322H337.333L352.667 116.892H368L383.333 113.345L398.667 109.355L414 103L429.333 109.355L444.667 103H460" stroke="#723DFD" stroke-width="2" stroke-linecap="round"/>
<circle cx="3" cy="130" r="4" fill="#723DFD"/>
<circle cx="34" cy="131" r="4" fill="#723DFD"/>
<circle cx="59" cy="122" r="4" fill="#723DFD"/>
<circle cx="83" cy="122" r="4" fill="#723DFD"/>
<circle cx="108" cy="122" r="4" fill="#723DFD"/>
<circle cx="139" cy="118" r="4" fill="#723DFD"/>
<circle cx="164" cy="116" r="4" fill="#723DFD"/>
<circle cx="189" cy="120" r="4" fill="#723DFD"/>
<circle cx="213" cy="115" r="4" fill="#723DFD"/>
<circle cx="245" cy="116" r="4" fill="#723DFD"/>
<circle cx="269" cy="114" r="4" fill="#723DFD"/>
<circle cx="294" cy="118" r="4" fill="#723DFD"/>
<circle cx="325" cy="124" r="4" fill="#723DFD"/>
<circle cx="350" cy="118" r="4" fill="#723DFD"/>
<circle cx="375" cy="115" r="4" fill="#723DFD"/>
<circle cx="399" cy="109" r="4" fill="#723DFD"/>
<circle cx="431" cy="107" r="4" fill="#723DFD"/>
<circle cx="456" cy="103" r="4" fill="#723DFD"/>
</svg>
