<svg width="24" height="24" viewBox="0 0 24 24" fill="none" xmlns="http://www.w3.org/2000/svg">
<path d="M11.0229 17.8548H9.64886C9.55731 17.8548 9.49617 17.9159 9.49617 18.0075C9.49617 18.099 9.55731 18.1602 9.64886 18.1602H11.0229C11.1145 18.1602 11.1756 18.099 11.1756 18.0075C11.1756 17.9311 11.0994 17.8548 11.0229 17.8548Z" fill="#5D6679"/>
<path d="M19.6773 2.84641C19.2276 2.39664 18.63 2.1492 17.9934 2.1492L6.56615 2.14892C5.92962 2.14892 5.33236 2.39636 4.88227 2.84613C4.43249 3.29591 4.18506 3.89346 4.18506 4.53002V19.7678C4.18506 20.4044 4.43249 21.0016 4.88227 21.4517C5.33204 21.9015 5.92959 22.1489 6.56615 22.1489H17.9949C18.6314 22.1489 19.2287 21.9015 19.6788 21.4517C20.1285 21.0019 20.376 20.4044 20.376 19.7678V4.53002C20.3748 3.89376 20.1274 3.29623 19.6776 2.84642L19.6773 2.84641ZM19.4229 19.7686C19.4229 20.5566 18.7825 21.197 17.9946 21.197H6.56585C5.77788 21.197 5.13747 20.5566 5.13747 19.7686V4.53008C5.13747 3.74211 5.7779 3.10171 6.56585 3.10171H17.9946C18.7825 3.10171 19.4229 3.74213 19.4229 4.53008V19.7686Z" fill="#5D6679"/>
<path d="M10.0384 10.86L8.47035 12.4284L7.85497 11.8131C7.66932 11.6274 7.36706 11.6274 7.1817 11.8131C6.99606 11.9987 6.99606 12.301 7.1817 12.4863L8.1344 13.439C8.2243 13.5289 8.34482 13.5787 8.47146 13.5787C8.59809 13.5787 8.71889 13.5289 8.80851 13.439L10.7136 11.5339C10.8993 11.3483 10.8993 11.046 10.7136 10.8606C10.528 10.6747 10.2238 10.6736 10.0384 10.8601L10.0384 10.86Z" fill="#5D6679"/>
<path d="M10.0384 15.6211L8.47035 17.1892L7.85497 16.5738C7.66932 16.3881 7.36706 16.3881 7.1817 16.5738C6.99606 16.7594 6.99606 17.0617 7.1817 17.2471L8.1344 18.1998C8.2243 18.2897 8.34482 18.3395 8.47146 18.3395C8.59809 18.3395 8.71889 18.2897 8.80851 18.1998L10.7136 16.2946C10.8993 16.109 10.8993 15.8067 10.7136 15.6214C10.528 15.4355 10.2238 15.4355 10.0384 15.6211L10.0384 15.6211Z" fill="#5D6679"/>
<path d="M10.0384 6.09761L8.47035 7.66571L7.85497 7.05033C7.66932 6.86469 7.36706 6.86469 7.1817 7.05033C6.99606 7.23598 6.99606 7.53824 7.1817 7.7236L8.1344 8.6763C8.2243 8.7662 8.34482 8.81602 8.47146 8.81602C8.59809 8.81602 8.71889 8.7662 8.80851 8.6763L10.7136 6.77118C10.8993 6.58554 10.8993 6.28328 10.7136 6.09792C10.528 5.91227 10.2238 5.91227 10.0384 6.09764L10.0384 6.09761Z" fill="#5D6679"/>
<path d="M17.0425 11.673H12.2803C12.017 11.673 11.8044 11.8865 11.8044 12.149C11.8044 12.4114 12.0178 12.6249 12.2803 12.6249H17.0425C17.3058 12.6249 17.5184 12.4114 17.5184 12.149C17.5184 11.8857 17.3049 11.673 17.0425 11.673Z" fill="#5D6679"/>
<path d="M17.0425 17.3874H12.2803C12.017 17.3874 11.8044 17.6009 11.8044 17.8633C11.8044 18.1258 12.0178 18.3393 12.2803 18.3393H17.0425C17.3058 18.3393 17.5184 18.1258 17.5184 17.8633C17.5184 17.6009 17.3049 17.3874 17.0425 17.3874Z" fill="#5D6679"/>
<path d="M17.0425 6.91059H12.2803C12.017 6.91059 11.8044 7.12407 11.8044 7.38653C11.8044 7.64899 12.0178 7.86246 12.2803 7.86246H17.0425C17.3058 7.86246 17.5184 7.64899 17.5184 7.38653C17.5184 7.12407 17.3049 6.91059 17.0425 6.91059Z" fill="#5D6679"/>
<path d="M11.0229 18.9233H9.64886C9.55731 18.9233 9.49617 18.9844 9.49617 19.076C9.49617 19.1675 9.55731 19.2287 9.64886 19.2287H11.0229C11.1145 19.2287 11.1756 19.1675 11.1756 19.076C11.1756 18.9844 11.0994 18.9233 11.0229 18.9233Z" fill="#5D6679"/>
</svg>
