<svg width="24" height="24" viewBox="0 0 24 24" fill="none" xmlns="http://www.w3.org/2000/svg">
<g clip-path="url(#clip0_401_303)">
<path d="M12 14.5C13.3807 14.5 14.5 13.3807 14.5 12C14.5 10.6193 13.3807 9.5 12 9.5C10.6193 9.5 9.5 10.6193 9.5 12C9.5 13.3807 10.6193 14.5 12 14.5Z" stroke="#5D6679" stroke-width="1.2" stroke-linecap="round" stroke-linejoin="round"/>
<path d="M18.1667 14.5C18.0557 14.7513 18.0226 15.0302 18.0717 15.3005C18.1207 15.5708 18.2496 15.8203 18.4417 16.0167L18.4917 16.0667C18.6466 16.2215 18.7696 16.4053 18.8534 16.6076C18.9373 16.8099 18.9805 17.0268 18.9805 17.2458C18.9805 17.4649 18.9373 17.6817 18.8534 17.8841C18.7696 18.0864 18.6466 18.2702 18.4917 18.425C18.3369 18.58 18.1531 18.7029 17.9507 18.7868C17.7484 18.8706 17.5315 18.9138 17.3125 18.9138C17.0935 18.9138 16.8766 18.8706 16.6743 18.7868C16.4719 18.7029 16.2881 18.58 16.1333 18.425L16.0833 18.375C15.8869 18.1829 15.6375 18.054 15.3672 18.005C15.0968 17.956 14.818 17.9891 14.5667 18.1C14.3202 18.2056 14.11 18.381 13.9619 18.6046C13.8139 18.8282 13.7344 19.0902 13.7333 19.3583V19.5C13.7333 19.942 13.5577 20.3659 13.2452 20.6785C12.9326 20.9911 12.5087 21.1667 12.0667 21.1667C11.6246 21.1667 11.2007 20.9911 10.8882 20.6785C10.5756 20.3659 10.4 19.942 10.4 19.5V19.425C10.3935 19.1492 10.3043 18.8817 10.1438 18.6572C9.98325 18.4328 9.75895 18.2619 9.5 18.1667C9.24865 18.0557 8.96984 18.0226 8.69951 18.0717C8.42918 18.1207 8.17973 18.2496 7.98333 18.4417L7.93333 18.4917C7.77854 18.6466 7.59473 18.7696 7.3924 18.8534C7.19007 18.9373 6.97319 18.9805 6.75417 18.9805C6.53514 18.9805 6.31826 18.9373 6.11593 18.8534C5.9136 18.7696 5.72979 18.6466 5.575 18.4917C5.42004 18.3369 5.29711 18.1531 5.21323 17.9507C5.12936 17.7484 5.08619 17.5315 5.08619 17.3125C5.08619 17.0935 5.12936 16.8766 5.21323 16.6743C5.29711 16.4719 5.42004 16.2881 5.575 16.1333L5.625 16.0833C5.81711 15.8869 5.94599 15.6375 5.995 15.3672C6.04402 15.0968 6.01093 14.818 5.9 14.5667C5.79436 14.3202 5.61896 14.11 5.39539 13.9619C5.17181 13.8139 4.90982 13.7344 4.64167 13.7333H4.5C4.05797 13.7333 3.63405 13.5577 3.32149 13.2452C3.00893 12.9326 2.83333 12.5087 2.83333 12.0667C2.83333 11.6246 3.00893 11.2007 3.32149 10.8882C3.63405 10.5756 4.05797 10.4 4.5 10.4H4.575C4.85083 10.3935 5.11834 10.3043 5.34275 10.1438C5.56716 9.98325 5.7381 9.75895 5.83333 9.5C5.94426 9.24865 5.97735 8.96984 5.92834 8.69951C5.87932 8.42918 5.75045 8.17973 5.55833 7.98333L5.50833 7.93333C5.35337 7.77854 5.23044 7.59473 5.14657 7.3924C5.06269 7.19007 5.01952 6.97319 5.01952 6.75417C5.01952 6.53514 5.06269 6.31826 5.14657 6.11593C5.23044 5.9136 5.35337 5.72979 5.50833 5.575C5.66312 5.42004 5.84694 5.29711 6.04927 5.21323C6.2516 5.12936 6.46847 5.08619 6.6875 5.08619C6.90653 5.08619 7.1234 5.12936 7.32573 5.21323C7.52806 5.29711 7.71188 5.42004 7.86667 5.575L7.91667 5.625C8.11307 5.81711 8.36251 5.94599 8.63284 5.995C8.90317 6.04402 9.18199 6.01093 9.43333 5.9H9.5C9.74647 5.79436 9.95668 5.61896 10.1047 5.39539C10.2528 5.17181 10.3323 4.90982 10.3333 4.64167V4.5C10.3333 4.05797 10.5089 3.63405 10.8215 3.32149C11.134 3.00893 11.558 2.83333 12 2.83333C12.442 2.83333 12.8659 3.00893 13.1785 3.32149C13.4911 3.63405 13.6667 4.05797 13.6667 4.5V4.575C13.6677 4.84316 13.7472 5.10515 13.8953 5.32872C14.0433 5.5523 14.2535 5.7277 14.5 5.83333C14.7513 5.94426 15.0302 5.97735 15.3005 5.92834C15.5708 5.87932 15.8203 5.75045 16.0167 5.55833L16.0667 5.50833C16.2215 5.35337 16.4053 5.23044 16.6076 5.14657C16.8099 5.06269 17.0268 5.01952 17.2458 5.01952C17.4649 5.01952 17.6817 5.06269 17.8841 5.14657C18.0864 5.23044 18.2702 5.35337 18.425 5.50833C18.58 5.66312 18.7029 5.84694 18.7868 6.04927C18.8706 6.2516 18.9138 6.46847 18.9138 6.6875C18.9138 6.90653 18.8706 7.1234 18.7868 7.32573C18.7029 7.52806 18.58 7.71188 18.425 7.86667L18.375 7.91667C18.1829 8.11307 18.054 8.36251 18.005 8.63284C17.956 8.90317 17.9891 9.18199 18.1 9.43333V9.5C18.2056 9.74647 18.381 9.95668 18.6046 10.1047C18.8282 10.2528 19.0902 10.3323 19.3583 10.3333H19.5C19.942 10.3333 20.3659 10.5089 20.6785 10.8215C20.9911 11.134 21.1667 11.558 21.1667 12C21.1667 12.442 20.9911 12.8659 20.6785 13.1785C20.3659 13.4911 19.942 13.6667 19.5 13.6667H19.425C19.1568 13.6677 18.8949 13.7472 18.6713 13.8953C18.4477 14.0433 18.2723 14.2535 18.1667 14.5Z" stroke="#5D6679" stroke-width="1.2" stroke-linecap="round" stroke-linejoin="round"/>
</g>
<defs>
<clipPath id="clip0_401_303">
<rect width="20" height="20" fill="white" transform="translate(2 2)"/>
</clipPath>
</defs>
</svg>
