<svg width="107" height="22" viewBox="0 0 107 22" fill="none" xmlns="http://www.w3.org/2000/svg">
<path d="M20.3125 0H1.55762C0.698242 0 0 0.708008 0 1.57715V20.2979C0 21.167 0.698242 21.875 1.55762 21.875H20.3125C21.1719 21.875 21.875 21.167 21.875 20.2979V1.57715C21.875 0.708008 21.1719 0 20.3125 0ZM6.61133 18.75H3.36914V8.31055H6.61621V18.75H6.61133ZM4.99023 6.88477C3.9502 6.88477 3.11035 6.04004 3.11035 5.00488C3.11035 3.96973 3.9502 3.125 4.99023 3.125C6.02539 3.125 6.87012 3.96973 6.87012 5.00488C6.87012 6.04492 6.03027 6.88477 4.99023 6.88477ZM18.7646 18.75H15.5225V13.6719C15.5225 12.4609 15.498 10.9033 13.8379 10.9033C12.1484 10.9033 11.8896 12.2217 11.8896 13.584V18.75H8.64746V8.31055H11.7578V9.73633H11.8018C12.2363 8.91602 13.2959 8.05176 14.873 8.05176C18.1543 8.05176 18.7646 10.2148 18.7646 13.0273V18.75Z" fill="black"/>
<path d="M51.946 5.33081C48.8406 5.33081 46.3357 7.83569 46.3357 10.9412C46.3357 14.0466 48.8406 16.5515 51.946 16.5515C55.0515 16.5515 57.5564 14.0466 57.5564 10.9412C57.5564 7.83569 55.0515 5.33081 51.946 5.33081ZM51.946 14.5886C49.9392 14.5886 48.2986 12.9529 48.2986 10.9412C48.2986 8.92944 49.9343 7.2937 51.946 7.2937C53.9578 7.2937 55.5935 8.92944 55.5935 10.9412C55.5935 12.9529 53.9529 14.5886 51.946 14.5886ZM59.0945 5.10132C59.0945 5.82886 58.5085 6.40991 57.7859 6.40991C57.0584 6.40991 56.4773 5.82397 56.4773 5.10132C56.4773 4.37866 57.0632 3.79272 57.7859 3.79272C58.5085 3.79272 59.0945 4.37866 59.0945 5.10132ZM62.8103 6.42944C62.7273 4.67651 62.3269 3.12378 61.0427 1.84448C59.7634 0.565185 58.2107 0.164795 56.4578 0.0769043C54.6511 -0.0256348 49.2361 -0.0256348 47.4294 0.0769043C45.6814 0.159912 44.1287 0.560303 42.8445 1.8396C41.5603 3.1189 41.1648 4.67163 41.0769 6.42456C40.9744 8.2312 40.9744 13.6462 41.0769 15.4529C41.1599 17.2058 41.5603 18.7585 42.8445 20.0378C44.1287 21.3171 45.6765 21.7175 47.4294 21.8054C49.2361 21.908 54.6511 21.908 56.4578 21.8054C58.2107 21.7224 59.7634 21.322 61.0427 20.0378C62.322 18.7585 62.7224 17.2058 62.8103 15.4529C62.9128 13.6462 62.9128 8.23608 62.8103 6.42944ZM60.4763 17.3914C60.0955 18.3484 59.3582 19.0857 58.3962 19.4714C56.9558 20.0427 53.5378 19.9109 51.946 19.9109C50.3542 19.9109 46.9314 20.0378 45.4958 19.4714C44.5388 19.0906 43.8015 18.3533 43.4158 17.3914C42.8445 15.9509 42.9763 12.533 42.9763 10.9412C42.9763 9.34937 42.8494 5.92651 43.4158 4.49097C43.7966 3.53394 44.5339 2.79663 45.4958 2.41089C46.9363 1.8396 50.3542 1.97144 51.946 1.97144C53.5378 1.97144 56.9607 1.84448 58.3962 2.41089C59.3533 2.79175 60.0906 3.52905 60.4763 4.49097C61.0476 5.9314 60.9158 9.34937 60.9158 10.9412C60.9158 12.533 61.0476 15.9558 60.4763 17.3914Z" fill="black"/>
<path d="M104.43 5.06025C104.446 5.28232 104.446 5.50444 104.446 5.72651C104.446 12.5 99.2906 20.3045 89.868 20.3045C86.9651 20.3045 84.2684 19.4638 82 18.0044C82.4125 18.052 82.809 18.0679 83.2373 18.0679C85.6326 18.0679 87.8375 17.2589 89.5983 15.8788C87.3458 15.8312 85.4581 14.356 84.8077 12.3255C85.125 12.373 85.4422 12.4048 85.7754 12.4048C86.2354 12.4048 86.6955 12.3413 87.1237 12.2303C84.776 11.7544 83.0152 9.69224 83.0152 7.20176V7.13833C83.6973 7.51904 84.4905 7.75698 85.3312 7.78867C83.9511 6.8686 83.0469 5.29819 83.0469 3.52153C83.0469 2.56978 83.3007 1.69731 83.7449 0.935889C86.2671 4.04502 90.0583 6.07544 94.3096 6.29756C94.2303 5.91685 94.1827 5.52031 94.1827 5.12373C94.1827 2.3001 96.4669 0 99.3064 0C100.782 0 102.114 0.618652 103.05 1.61802C104.208 1.39595 105.318 0.967627 106.302 0.380713C105.921 1.57046 105.112 2.56982 104.049 3.2043C105.081 3.09331 106.08 2.80771 107 2.41118C106.302 3.42637 105.43 4.33052 104.43 5.06025Z" fill="black"/>
</svg>
