<svg width="107" height="26" viewBox="0 0 107 26" fill="none" xmlns="http://www.w3.org/2000/svg">
<path d="M20.3125 0.705566H1.55762C0.698242 0.705566 0 1.50752 0 2.49198V23.6967C0 24.6812 0.698242 25.4831 1.55762 25.4831H20.3125C21.1719 25.4831 21.875 24.6812 21.875 23.6967V2.49198C21.875 1.50752 21.1719 0.705566 20.3125 0.705566ZM6.61133 21.9435H3.36914V10.1188H6.61621V21.9435H6.61133ZM4.99023 8.50386C3.9502 8.50386 3.11035 7.54705 3.11035 6.37454C3.11035 5.20203 3.9502 4.24522 4.99023 4.24522C6.02539 4.24522 6.87012 5.20203 6.87012 6.37454C6.87012 7.55258 6.03027 8.50386 4.99023 8.50386ZM18.7646 21.9435H15.5225V16.1915C15.5225 14.8199 15.498 13.0556 13.8379 13.0556C12.1484 13.0556 11.8896 14.5489 11.8896 16.092V21.9435H8.64746V10.1188H11.7578V11.7338H11.8018C12.2363 10.8046 13.2959 9.8257 14.873 9.8257C18.1543 9.8257 18.7646 12.2758 18.7646 15.4615V21.9435Z" fill="black"/>
<path d="M51.946 6.74371C48.8406 6.74371 46.3357 9.58096 46.3357 13.0985C46.3357 16.616 48.8406 19.4533 51.946 19.4533C55.0515 19.4533 57.5564 16.616 57.5564 13.0985C57.5564 9.58096 55.0515 6.74371 51.946 6.74371ZM51.946 17.2299C49.9392 17.2299 48.2986 15.3771 48.2986 13.0985C48.2986 10.8198 49.9343 8.96706 51.946 8.96706C53.9578 8.96706 55.5935 10.8198 55.5935 13.0985C55.5935 15.3771 53.9529 17.2299 51.946 17.2299ZM59.0945 6.48377C59.0945 7.30784 58.5085 7.966 57.7859 7.966C57.0584 7.966 56.4773 7.30231 56.4773 6.48377C56.4773 5.66523 57.0632 5.00154 57.7859 5.00154C58.5085 5.00154 59.0945 5.66523 59.0945 6.48377ZM62.8103 7.98812C62.7273 6.0026 62.3269 4.24383 61.0427 2.79479C59.7634 1.34575 58.2107 0.892228 56.4578 0.792675C54.6511 0.67653 49.2361 0.67653 47.4294 0.792675C45.6814 0.886697 44.1287 1.34021 42.8445 2.78926C41.5603 4.2383 41.1648 5.99707 41.0769 7.98259C40.9744 10.029 40.9744 16.1625 41.0769 18.2089C41.1599 20.1944 41.5603 21.9531 42.8445 23.4022C44.1287 24.8512 45.6765 25.3048 47.4294 25.4043C49.2361 25.5205 54.6511 25.5205 56.4578 25.4043C58.2107 25.3103 59.7634 24.8568 61.0427 23.4022C62.322 21.9531 62.7224 20.1944 62.8103 18.2089C62.9128 16.1625 62.9128 10.0345 62.8103 7.98812ZM60.4763 20.4046C60.0955 21.4886 59.3582 22.3237 58.3962 22.7606C56.9558 23.4077 53.5378 23.2584 51.946 23.2584C50.3542 23.2584 46.9314 23.4022 45.4958 22.7606C44.5388 22.3292 43.8015 21.4941 43.4158 20.4046C42.8445 18.773 42.9763 14.9015 42.9763 13.0985C42.9763 11.2955 42.8494 7.41846 43.4158 5.79243C43.7966 4.70841 44.5339 3.87328 45.4958 3.43635C46.9363 2.78926 50.3542 2.93859 51.946 2.93859C53.5378 2.93859 56.9607 2.79479 58.3962 3.43635C59.3533 3.86775 60.0906 4.70288 60.4763 5.79243C61.0476 7.42399 60.9158 11.2955 60.9158 13.0985C60.9158 14.9015 61.0476 18.7785 60.4763 20.4046Z" fill="black"/>
<path d="M104.43 6.43726C104.446 6.68879 104.446 6.94038 104.446 7.19192C104.446 14.8641 99.2906 23.7043 89.868 23.7043C86.9651 23.7043 84.2684 22.7519 82 21.099C82.4125 21.1529 82.809 21.1708 83.2373 21.1708C85.6326 21.1708 87.8375 20.2545 89.5983 18.6913C87.3458 18.6374 85.4581 16.9664 84.8077 14.6665C85.125 14.7204 85.4422 14.7563 85.7754 14.7563C86.2354 14.7563 86.6955 14.6844 87.1237 14.5587C84.776 14.0196 83.0152 11.6838 83.0152 8.86291V8.79107C83.6973 9.2223 84.4905 9.49181 85.3312 9.5277C83.9511 8.48555 83.0469 6.70677 83.0469 4.69437C83.0469 3.61632 83.3007 2.62809 83.7449 1.76564C86.2671 5.28731 90.0583 7.58715 94.3096 7.83874C94.2303 7.40751 94.1827 6.95836 94.1827 6.50916C94.1827 3.31086 96.4669 0.705566 99.3064 0.705566C100.782 0.705566 102.114 1.40631 103.05 2.53828C104.208 2.28674 105.318 1.80159 106.302 1.1368C105.921 2.48441 105.112 3.61638 104.049 4.33504C105.081 4.20932 106.08 3.88583 107 3.43668C106.302 4.58657 105.43 5.61069 104.43 6.43726Z" fill="black"/>
</svg>
