<svg width="31" height="30" viewBox="0 0 31 30" fill="none" xmlns="http://www.w3.org/2000/svg">
<rect x="0.5" width="30" height="30" rx="4" fill="#E5F7FD"/>
<path d="M15.3879 4C9.38448 4 4.5 8.88448 4.5 14.8879C4.5 17.5721 5.47821 20.0305 7.09438 21.9305C7.11507 21.9624 7.13881 21.9926 7.16653 22.0203C7.1728 22.0266 7.17982 22.0306 7.18609 22.0364C9.18372 24.3253 12.1187 25.7756 15.388 25.7756C18.6572 25.7756 21.5921 24.3253 23.5899 22.0364C23.5961 22.0308 23.6035 22.0264 23.6094 22.0203C23.6371 21.9926 23.6611 21.962 23.6816 21.9305C25.2977 20.0303 26.2759 17.5718 26.2759 14.8879C26.2759 8.88448 21.3913 4 15.3879 4ZM15.3879 24.687C12.6052 24.687 10.0917 23.5193 8.30638 21.6504L9.05221 20.9046C9.77275 20.1842 10.7304 19.7874 11.7488 19.7874H19.0271C20.0454 19.7874 21.0031 20.1842 21.7235 20.9044L22.4693 21.6502C20.6841 23.5191 18.1707 24.687 15.3879 24.687ZM23.1795 20.8209L22.4933 20.1347C21.5673 19.2087 20.3364 18.6985 19.0271 18.6985H11.7488C10.4394 18.6985 9.20867 19.2087 8.28267 20.1347L7.59648 20.8209C6.33821 19.1728 5.58879 17.1165 5.58879 14.8879C5.58879 9.48482 9.98448 5.08884 15.3879 5.08884C20.791 5.08884 25.187 9.48453 25.187 14.8879C25.187 17.1166 24.4376 19.1729 23.1795 20.8209ZM15.3879 8.8996C12.9866 8.8996 11.0326 10.8533 11.0326 13.2548C11.0326 15.6561 12.9864 17.6101 15.3879 17.6101C17.7891 17.6101 19.7431 15.6564 19.7431 13.2548C19.7431 10.8533 17.7892 8.8996 15.3879 8.8996ZM15.3879 16.5211C13.5868 16.5211 12.1216 15.0559 12.1216 13.2548C12.1216 11.4537 13.5868 9.98848 15.3879 9.98848C17.189 9.98848 18.6542 11.4537 18.6542 13.2548C18.6542 15.0559 17.189 16.5211 15.3879 16.5211Z" fill="#24B8F1"/>
</svg>
