<svg width="13" height="14" viewBox="0 0 13 14" fill="none" xmlns="http://www.w3.org/2000/svg">
<g clip-path="url(#clip0_550_13285)">
<path fill-rule="evenodd" clip-rule="evenodd" d="M0 7.32398C0 5.56815 0.684819 3.88424 1.90381 2.64267C3.12279 1.40111 4.77609 0.703613 6.5 0.703613C8.22391 0.703613 9.87721 1.40111 11.0962 2.64267C12.3152 3.88424 13 5.56815 13 7.32398C13 9.07981 12.3152 10.7637 11.0962 12.0053C9.87721 13.2469 8.22391 13.9444 6.5 13.9444C4.77609 13.9444 3.12279 13.2469 1.90381 12.0053C0.684819 10.7637 0 9.07981 0 7.32398H0ZM6.12907 10.1575L9.87133 5.3926L9.19533 4.84179L6.00427 8.90316L3.744 6.98502L3.18933 7.66295L6.12907 10.1584V10.1575Z" fill="black"/>
</g>
<defs>
<clipPath id="clip0_550_13285">
<rect width="13" height="13.2407" fill="white" transform="translate(0 0.703613)"/>
</clipPath>
</defs>
</svg>
